<svg id="Layer_3" height="512" viewBox="0 0 64 64" width="512" xmlns="http://www.w3.org/2000/svg" data-name="Layer 3"><path d="m49.941 34a6.971 6.971 0 0 1 6.685 9.135 28.065 28.065 0 1 1 -30.467-36.865 7.662 7.662 0 0 1 6.424 2.23 7.769 7.769 0 0 1 0 11l-.876.874a7.968 7.968 0 0 0 -1 10.07 8 8 0 0 0 6.654 3.556z" fill="#d8d8d8"/><circle cx="37" cy="52" fill="#e1656e" r="5"/><path d="m32 52a4.954 4.954 0 0 0 1.147 3.151 4.981 4.981 0 0 0 5.807-7.751 5 5 0 0 0 -6.954 4.6z" fill="#f29b99"/><path d="m42 40 19.424-31.964a3.975 3.975 0 0 0 .522-2.713 3.98 3.98 0 0 0 -5.184-3.117h-.014a3.981 3.981 0 0 0 -2.343 2.078l-15.405 32.696" fill="#976947"/><path d="m46.914 31.914-3.757-3.757-4.157 8.823v.02l3 3z" fill="#674025"/><circle cx="23" cy="51" fill="#b52f28" r="5"/><path d="m42 40a15.843 15.843 0 0 1 -15.369 12h-1.631l1.977-1.977a6.908 6.908 0 0 0 2.023-4.884 6.908 6.908 0 0 1 4.922-6.616l5.078-1.523z" fill="#c18e59"/><path d="m41.246 39.246-2.246-2.246-5.078 1.523a6.908 6.908 0 0 0 -4.922 6.616 6.9 6.9 0 0 1 -1.147 3.809 15.835 15.835 0 0 0 13.393-9.702z" fill="#cc996a"/><circle cx="23" cy="17" fill="#d5883e" r="5"/><path d="m18 17a4.954 4.954 0 0 0 1.147 3.151 4.981 4.981 0 0 0 5.807-7.751 5 5 0 0 0 -6.954 4.6z" fill="#f0ae42"/><circle cx="13" cy="27" fill="#4d8c28" r="5"/><circle cx="13" cy="41" fill="#3d54bd" r="5"/><path d="m8 27a4.954 4.954 0 0 0 1.147 3.151 4.981 4.981 0 0 0 5.807-7.751 5 5 0 0 0 -6.954 4.6z" fill="#6bc13b"/><path d="m8 41a4.954 4.954 0 0 0 1.147 3.151 4.981 4.981 0 0 0 5.807-7.751 5 5 0 0 0 -6.954 4.6z" fill="#546ded"/><path d="m18 51a4.954 4.954 0 0 0 1.147 3.151 4.981 4.981 0 0 0 5.807-7.751 5 5 0 0 0 -6.954 4.6z" fill="#d23f34"/><path d="m62.933 5.158a4.991 4.991 0 0 0 -9.432-1.3l-13.731 29.142h-2.409a6.981 6.981 0 0 1 -4.948-11.917l.876-.874a8.784 8.784 0 0 0 -7.268-14.929 28.995 28.995 0 0 0 2.2 57.662q.9.056 1.8.056a29.2 29.2 0 0 0 27.55-19.535 7.7 7.7 0 0 0 -1.039-7.063 8.106 8.106 0 0 0 -6.592-3.4h-2.516l14.855-24.446a4.977 4.977 0 0 0 .654-3.396zm-21.126 33.235-1.607-1.609 3.258-6.914 2.2 2.195zm-8.781 13.338a16.818 16.818 0 0 0 5.325-3.485 4 4 0 1 1 -5.351 3.754c0-.09.02-.179.026-.269zm-5.59-.752.248-.249a7.852 7.852 0 0 0 2.316-5.591 5.944 5.944 0 0 1 4.209-5.658l4.506-1.351 2.169 2.17a14.818 14.818 0 0 1 -13.448 10.679zm-3.36 1.4a1 1 0 0 0 .924.621h1.46a4 4 0 1 1 .037-3.935c-.075.084-.147.171-.227.251l-1.977 1.977a1 1 0 0 0 -.217 1.09zm25.864-17.379a6.1 6.1 0 0 1 4.96 2.562 5.72 5.72 0 0 1 .778 5.247 27.065 27.065 0 1 1 -29.378-35.548 6.78 6.78 0 0 1 5.58 11.532l-.88.874a8.981 8.981 0 0 0 6.361 15.333h1.466l-.553 1.174-4.639 1.391a7.959 7.959 0 0 0 -5.635 7.574 5.9 5.9 0 0 1 -.374 2.058 6 6 0 1 0 1.06 5.664 16.916 16.916 0 0 0 2.335-.445 6 6 0 1 0 8.743-5.716 16.816 16.816 0 0 0 3.155-6.287l3.29-5.413zm10.629-27.484-13.849 22.79-2.358-2.358 10.948-23.233a3 3 0 0 1 4.25-1.285 2.968 2.968 0 0 1 1.009 4.086z"/><path d="m23 23a6 6 0 1 0 -6-6 6.006 6.006 0 0 0 6 6zm0-10a4 4 0 1 1 -4 4 4 4 0 0 1 4-4z"/><path d="m13 33a6 6 0 1 0 -6-6 6.006 6.006 0 0 0 6 6zm0-10a4 4 0 1 1 -4 4 4 4 0 0 1 4-4z"/><path d="m19 41a6 6 0 1 0 -6 6 6.006 6.006 0 0 0 6-6zm-6 4a4 4 0 1 1 4-4 4 4 0 0 1 -4 4z"/></svg>